<?xml version="1.0" encoding="UTF-8"?>
<!DOCTYPE svg PUBLIC "-//W3C//DTD SVG 1.1//EN" "http://www.w3.org/Graphics/SVG/1.1/DTD/svg11.dtd">
<svg version="1.1" id="Layer_1"
  xmlns="http://www.w3.org/2000/svg"
  xmlns:xlink="http://www.w3.org/1999/xlink" x="0px" y="0px" width="2048px" height="2048px" viewBox="0 0 2048 2048" enable-background="new 0 0 2048 2048" xml:space="preserve">
  <rect x="-1.5" y="1.5" fill="#181818" stroke="#181818" stroke-miterlimit="10" width="2070" height="2058"/>
  <circle fill="none" stroke="#F2F2F2" stroke-width="16" stroke-miterlimit="10" cx="1535.572" cy="1535.904" r="404.762"/>
  <g>
    <rect x="1523.5" y="1085.5" fill="#181818" stroke="#181818" stroke-miterlimit="10" width="24" height="900"/>
    <rect x="1085.5" y="1523.5" fill="#181818" stroke="#181818" stroke-miterlimit="10" width="900" height="24"/>
    <rect x="1523.499" y="1086.5" transform="matrix(0.7071 -0.7071 0.7071 0.7071 -636.7322 1535.7925)" fill="#181818" stroke="#181818" stroke-miterlimit="10" width="24" height="900"/>
    <rect x="1523.5" y="1086.5" transform="matrix(-0.7071 -0.7071 0.7071 -0.7071 1534.7932 3708.7312)" fill="#181818" stroke="#181818" stroke-miterlimit="10" width="24" height="900"/>
    <rect x="1523.499" y="1086.5" transform="matrix(0.9239 -0.3827 0.3827 0.9239 -471.1062 704.5593)" fill="#181818" stroke="#181818" stroke-miterlimit="10" width="24.001" height="900.001"/>
    <rect x="1523.5" y="1086.5" transform="matrix(-0.3827 -0.9239 0.9239 -0.3827 703.5901 3543.1184)" fill="#181818" stroke="#181818" stroke-miterlimit="10" width="24" height="900.001"/>
    <rect x="1523.882" y="1087.424" transform="matrix(0.3827 -0.9239 0.9239 0.3827 -472.2783 2368.0259)" fill="#181818" stroke="#181818" stroke-miterlimit="10" width="24" height="900"/>
    <rect x="1523.882" y="1087.424" transform="matrix(-0.9239 -0.3827 0.3827 -0.9239 2366.4849 3545.5837)" fill="#181818" stroke="#181818" stroke-miterlimit="10" width="24" height="900"/>
    <rect x="1523.413" y="1086.545" transform="matrix(0.8315 -0.5556 0.5556 0.8315 -594.8921 1111.9678)" fill="#181818" stroke="#181818" stroke-miterlimit="10" width="24.001" height="900.001"/>
    <rect x="1523.414" y="1086.546" transform="matrix(-0.5556 -0.8315 0.8315 -0.5556 1110.8125 3666.8459)" fill="#181818" stroke="#181818" stroke-miterlimit="10" width="23.999" height="899.999"/>
    <rect x="1523.968" y="1087.377" transform="matrix(0.1951 -0.9808 0.9808 0.1951 -271.4933 2743.9463)" fill="#181818" stroke="#181818" stroke-miterlimit="10" width="24" height="900"/>
    <rect x="1523.97" y="1087.377" transform="matrix(-0.9808 -0.1951 0.1951 -0.9808 2742.4382 3344.9053)" fill="#181818" stroke="#181818" stroke-miterlimit="10" width="23.998" height="899.999"/>
    <rect x="1523.137" y="1086.821" transform="matrix(0.5556 -0.8314 0.8314 0.5556 -595.5801 1959.3253)" fill="#181818" stroke="#181818" stroke-miterlimit="10" width="24.001" height="900.001"/>
    <rect x="1523.137" y="1086.821" transform="matrix(-0.8315 -0.5556 0.5556 -0.8315 1957.7141 3667.5225)" fill="#181818" stroke="#181818" stroke-miterlimit="10" width="24" height="899.999"/>
    <rect x="1523.968" y="1087.376" transform="matrix(-0.1951 -0.9808 0.9808 -0.1951 327.8279 3343.7886)" fill="#181818" stroke="#181818" stroke-miterlimit="10" width="23.999" height="900.001"/>
    <rect x="1523.969" y="1087.377" transform="matrix(-0.9808 0.195 -0.195 -0.9808 3342.2354 2745.731)" fill="#181818" stroke="#181818" stroke-miterlimit="10" width="23.999" height="899.998"/>
  </g>
  <circle fill="#314FFF" stroke="#314FFF" stroke-miterlimit="10" cx="1226.238" cy="1795.904" r="76.762"/>
  <circle fill="#5700BB" stroke="#5700BB" stroke-miterlimit="10" cx="1536" cy="1536" r="200"/>
  <line fill="none" stroke="#F2F2F2" stroke-width="8" stroke-miterlimit="10" x1="1152" y1="256" x2="1535.137" y2="512.5"/>
  <circle fill="#314FFF" stroke="#314FFF" stroke-miterlimit="10" cx="1152" cy="256" r="44"/>
  <line fill="none" stroke="#F2F2F2" stroke-width="8" stroke-miterlimit="10" x1="1152" y1="768" x2="1535.137" y2="512.5"/>
  <circle fill="#5700BB" stroke="#5700BB" stroke-miterlimit="10" cx="1152" cy="768" r="44"/>
  <polygon fill="#F2F2F2" stroke="#F2F2F2" stroke-miterlimit="10" points="1343.111,409.082 1323.699,372.323 1365.239,373.89 "/>
  <polygon fill="#F2F2F2" stroke="#F2F2F2" stroke-miterlimit="10" points="1324.175,631.474 1365.2,624.774 1350.49,663.655 "/>
  <path fill="none" stroke="#F2F2F2" stroke-width="8" stroke-miterlimit="10" d="M1515.5,467.5c0,0,32.299,90.092,59.002,89.125
  c25.481-0.923,24.504-88.586,50-88.895c25.919-0.313,27.079,89.315,52.999,89.112c25.62-0.201,25.386-89.459,51-88.892
  c25.063,0.555,20.935,89.198,46.002,89.097c24.911-0.1,27.093-89.255,52.001-88.905c24.62,0.345,25.379,89.539,49.997,89.088
  c24.171-0.442,24.834-88.367,49.003-88.92c24.725-0.565,27.27,88.637,51.996,89.091c25.136,0.461,38-88.901,38-88.901"/>
  <rect x="1397.722" y="370.533" transform="matrix(0.8299 0.5579 -0.5579 0.8299 490.8031 -765.6632)" fill="#181818" stroke="#181818" stroke-miterlimit="10" width="206.572" height="103"/>
  <circle fill="#2D2D2D" stroke="#F2F2F2" stroke-width="8" stroke-miterlimit="10" cx="511.572" cy="1535.904" r="404.762"/>
  <path fill="#5700BB" stroke="#5700BB" stroke-miterlimit="10" d="M697.04,1321.287c0,102.289-82.921,185.209-185.209,185.209
  c-102.288,0-185.208-82.92-185.208-185.209c0-102.285,82.921-185.208,185.208-185.208
  C614.119,1136.079,697.04,1219.002,697.04,1321.287z"/>
  <path fill="#5700BB" stroke="#5700BB" stroke-miterlimit="10" d="M511.04,1642.287c0,102.289-82.921,185.209-185.209,185.209
  c-102.288,0-185.208-82.92-185.208-185.209c0-102.285,82.921-185.208,185.208-185.208
  C428.119,1457.079,511.04,1540.002,511.04,1642.287z"/>
  <circle fill="#314FFF" stroke="#314FFF" stroke-miterlimit="10" cx="349.955" cy="499.489" r="68.997"/>
  <path fill="#314FFF" stroke="#314FFF" stroke-miterlimit="10" d="M882.04,1642.287c0,102.289-82.921,185.209-185.209,185.209
  c-102.288,0-185.208-82.92-185.208-185.209c0-102.285,82.921-185.208,185.208-185.208
  C799.119,1457.079,882.04,1540.002,882.04,1642.287z"/>
  <circle fill="#5700BB" stroke="#5700BB" stroke-miterlimit="10" cx="600.955" cy="663.489" r="68.997"/>
  <circle fill="#314FFF" stroke="#314FFF" stroke-miterlimit="10" cx="687.955" cy="586.489" r="68.997"/>
  <circle fill="#5700BB" stroke="#5700BB" stroke-miterlimit="10" cx="696.955" cy="488.489" r="68.997"/>
  <circle fill="#5700BB" stroke="#5700BB" stroke-miterlimit="10" cx="532.955" cy="372.489" r="68.997"/>
  <circle fill="#314FFF" stroke="#314FFF" stroke-miterlimit="10" cx="600.955" cy="422.489" r="68.997"/>
  <circle fill="#314FFF" stroke="#314FFF" stroke-miterlimit="10" cx="523.955" cy="706.489" r="68.997"/>
  <circle fill="#314FFF" stroke="#314FFF" stroke-miterlimit="10" cx="642.955" cy="594.489" r="68.997"/>
  <circle fill="#314FFF" stroke="#314FFF" stroke-miterlimit="10" cx="409.955" cy="624.489" r="68.997"/>
  <circle fill="#314FFF" stroke="#314FFF" stroke-miterlimit="10" cx="487.955" cy="453.489" r="68.997"/>
  <circle fill="#5700BB" stroke="#5700BB" stroke-miterlimit="10" cx="326.955" cy="581.489" r="68.997"/>
  <circle fill="#5700BB" stroke="#5700BB" stroke-miterlimit="10" cx="523.955" cy="568.489" r="68.997"/>
  <circle fill="#5700BB" stroke="#5700BB" stroke-miterlimit="10" cx="373.955" cy="419.489" r="68.997"/>
  <circle fill="#5700BB" stroke="#5700BB" stroke-miterlimit="10" cx="442.955" cy="713.489" r="68.997"/>
  <circle fill="#A8FF44" stroke="#A8FF44" stroke-miterlimit="10" cx="907.29" cy="256.29" r="19.29"/>
  <circle fill="#F2F2F2" stroke="#F2F2F2" stroke-miterlimit="10" cx="817.291" cy="101.29" r="13.291"/>
  <line fill="none" stroke="#F2F2F2" stroke-width="4" stroke-miterlimit="10" x1="804" y1="133.999" x2="738.934" y2="397.985"/>
  <line fill="none" stroke="#F2F2F2" stroke-width="4" stroke-miterlimit="10" x1="876.638" y1="286.991" x2="765.951" y2="409.082"/>
  <g>
    <title>Layer 1</title>
    <polygon id="svg_1" fill="#314FFF" stroke="#314FFF" stroke-miterlimit="10" points="370.686,926.78 436.983,926.78
    436.851,932.627"/>
    <polygon id="svg_2" fill="#314FFF" stroke="#314FFF" stroke-miterlimit="10" points="370.686,926.78 370.686,932.494
    436.851,932.627"/>
    <polygon id="svg_3" fill="#314FFF" stroke="#314FFF" stroke-miterlimit="10" points="400.858,932.468 406.731,1039.447
    406.877,932.613"/>
    <polygon id="svg_4" fill="#314FFF" stroke="#314FFF" stroke-miterlimit="10" points="400.858,932.468 400.593,1039.594
    406.731,1039.447"/>
    <polygon id="svg_5" fill="#314FFF" stroke="#314FFF" stroke-miterlimit="10" points="493.543,926.768 499.681,1039.594
    493.397,1039.594"/>
    <polygon id="svg_6" fill="#314FFF" stroke="#314FFF" stroke-miterlimit="10" points="493.543,926.768 499.828,926.768
    499.681,1039.594"/>
    <polygon id="svg_7" fill="#314FFF" stroke="#314FFF" stroke-miterlimit="10" points="499.828,926.768 528.592,932.507
    499.894,932.64"/>
    <polygon id="svg_8" fill="#314FFF" stroke="#314FFF" stroke-miterlimit="10" points="499.828,926.768 528.592,926.661
    528.592,932.507"/>
    <polygon id="svg_9" fill="#314FFF" stroke="#314FFF" stroke-miterlimit="10" points="528.592,926.661 536.697,927.724
    534.438,930.913"/>
    <polygon id="svg_10" fill="#314FFF" stroke="#314FFF" stroke-miterlimit="10" points="528.592,926.661 528.592,932.507
    534.837,933.438"/>
    <polygon id="svg_11" fill="#314FFF" stroke="#314FFF" stroke-miterlimit="10" points="534.438,930.913 534.837,933.438
    528.592,926.661"/>
    <polygon id="svg_12" fill="#314FFF" stroke="#314FFF" stroke-miterlimit="10" points="534.438,930.913 543.207,932.108
    543.473,929.584"/>
    <polygon id="svg_13" fill="#314FFF" stroke="#314FFF" stroke-miterlimit="10" points="543.473,929.584 536.697,927.724
    534.438,930.913"/>
    <polygon id="svg_14" fill="#314FFF" stroke="#314FFF" stroke-miterlimit="10" points="543.207,932.108 542.41,935.695
    534.837,933.438"/>
    <polygon id="svg_15" fill="#314FFF" stroke="#314FFF" stroke-miterlimit="10" points="543.207,932.108 548.92,934.633
    548.787,932.507"/>
    <polygon id="svg_16" fill="#314FFF" stroke="#314FFF" stroke-miterlimit="10" points="543.207,932.108 534.438,930.913
    534.837,933.438"/>
    <polygon id="svg_17" fill="#314FFF" stroke="#314FFF" stroke-miterlimit="10" points="542.41,935.695 550.78,941.94
    548.92,934.633"/>
    <polygon id="svg_18" fill="#314FFF" stroke="#314FFF" stroke-miterlimit="10" points="548.787,932.507 556.892,940.08
    548.92,934.633"/>
    <polygon id="svg_19" fill="#314FFF" stroke="#314FFF" stroke-miterlimit="10" points="556.892,940.08 555.298,950.71
    550.78,941.94"/>
    <polygon id="svg_20" fill="#314FFF" stroke="#314FFF" stroke-miterlimit="10" points="555.298,950.71 561.94,953.765
    556.892,940.08"/>
    <polygon id="svg_21" fill="#314FFF" stroke="#314FFF" stroke-miterlimit="10" points="555.298,950.71 556.095,961.736
    561.94,953.765"/>
    <polygon id="svg_22" fill="#314FFF" stroke="#314FFF" stroke-miterlimit="10" points="561.94,953.765 562.34,959.744
    556.095,961.736"/>
    <polygon id="svg_23" fill="#314FFF" stroke="#314FFF" stroke-miterlimit="10" points="556.095,961.736 558.884,971.17
    562.34,959.744"/>
    <polygon id="svg_24" fill="#314FFF" stroke="#314FFF" stroke-miterlimit="10" points="562.34,959.744 560.744,972.366
    558.884,971.17"/>
    <polygon id="svg_25" fill="#314FFF" stroke="#314FFF" stroke-miterlimit="10" points="558.884,971.17 554.501,970.771
    556.095,961.736"/>
    <polygon id="svg_26" fill="#314FFF" stroke="#314FFF" stroke-miterlimit="10" points="554.501,970.771 550.381,977.68
    555.962,975.688"/>
    <polygon id="svg_27" fill="#314FFF" stroke="#314FFF" stroke-miterlimit="10" points="555.962,975.688 558.884,971.17
    554.501,970.771"/>
    <polygon id="svg_28" fill="#314FFF" stroke="#314FFF" stroke-miterlimit="10" points="555.962,975.688 556.228,981.135
    560.744,972.366"/>
    <polygon id="svg_29" fill="#314FFF" stroke="#314FFF" stroke-miterlimit="10" points="548.787,932.507 543.473,929.584
    543.207,932.108"/>
    <polygon id="svg_30" fill="#314FFF" stroke="#314FFF" stroke-miterlimit="10" points="543.207,932.108 542.41,935.695
    548.92,934.633"/>
    <polygon id="svg_31" fill="#314FFF" stroke="#314FFF" stroke-miterlimit="10" points="548.92,934.633 556.892,940.08
    550.78,941.94"/>
    <polygon id="svg_32" fill="#314FFF" stroke="#314FFF" stroke-miterlimit="10" points="560.744,972.366 558.884,971.17
    555.962,975.688"/>
    <polygon id="svg_33" fill="#314FFF" stroke="#314FFF" stroke-miterlimit="10" points="550.381,977.68 556.228,981.135
    555.962,975.688"/>
    <polygon id="svg_34" fill="#314FFF" stroke="#314FFF" stroke-miterlimit="10" points="550.381,977.68 545.731,981.932
    556.228,981.135"/>
    <polygon id="svg_35" fill="#314FFF" stroke="#314FFF" stroke-miterlimit="10" points="556.228,981.135 549.186,987.646
    545.731,981.932"/>
    <polygon id="svg_36" fill="#314FFF" stroke="#314FFF" stroke-miterlimit="10" points="545.731,981.932 539.62,988.31
    549.186,987.646"/>
    <polygon id="svg_37" fill="#314FFF" stroke="#314FFF" stroke-miterlimit="10" points="549.186,987.646 538.956,991.232
    539.62,988.31"/>
    <polygon id="svg_38" fill="#314FFF" stroke="#314FFF" stroke-miterlimit="10" points="539.62,988.31 536.431,985.917
    545.731,981.932"/>
    <polygon id="svg_39" fill="#314FFF" stroke="#314FFF" stroke-miterlimit="10" points="538.956,991.232 532.313,992.561
    536.431,985.917"/>
    <polygon id="svg_40" fill="#314FFF" stroke="#314FFF" stroke-miterlimit="10" points="539.62,988.31 536.431,985.917
    538.956,991.232"/>
    <polygon id="svg_41" fill="#314FFF" stroke="#314FFF" stroke-miterlimit="10" points="532.313,992.561 530.718,987.113
    536.431,985.917"/>
    <polygon id="svg_42" fill="#314FFF" stroke="#314FFF" stroke-miterlimit="10" points="530.718,987.113 499.761,986.848
    532.313,992.561"/>
    <polygon id="svg_43" fill="#314FFF" stroke="#314FFF" stroke-miterlimit="10" points="532.313,992.561 500.026,992.826
    499.761,986.848"/>
    <polygon id="svg_44" fill="#314FFF" stroke="#314FFF" stroke-miterlimit="10" points="532.313,992.561 540.15,1007.176
    538.956,991.232"/>
    <polygon id="svg_45" fill="#314FFF" stroke="#314FFF" stroke-miterlimit="10" points="538.956,991.232 555.695,1024.314
    540.15,1007.176"/>
    <polygon id="svg_46" fill="#314FFF" stroke="#314FFF" stroke-miterlimit="10" points="555.695,1024.314 557.29,1040.524
    540.15,1007.176"/>
    <polygon id="svg_47" fill="#314FFF" stroke="#314FFF" stroke-miterlimit="10" points="555.695,1024.314 562.87,1038.133
    557.29,1040.524"/>
    <polygon id="svg_48" fill="#314FFF" stroke="#314FFF" stroke-miterlimit="10" points="648.635,928.016 654.331,928.301
    648.635,1039.658"/>
    <polygon id="svg_49" fill="#314FFF" stroke="#314FFF" stroke-miterlimit="10" points="654.615,1039.658 648.635,1039.658
    654.331,928.301"/>
    <polygon id="svg_50" fill="#314FFF" stroke="#314FFF" stroke-miterlimit="10" points="772.836,864.647 778.788,864.961
    779.102,1090.523"/>
    <polygon id="svg_51" fill="#314FFF" stroke="#314FFF" stroke-miterlimit="10" points="772.522,1090.523 779.102,1090.523
    772.836,864.647"/>
    <polygon id="svg_52" fill="#314FFF" stroke="#314FFF" stroke-miterlimit="10" points="859.107,929.497 864.423,927.249
    897.128,1039.705"/>
    <polygon id="svg_53" fill="#314FFF" stroke="#314FFF" stroke-miterlimit="10" points="897.128,1039.705 899.403,1028.146
    864.423,927.249"/>
    <polygon id="svg_54" fill="#314FFF" stroke="#314FFF" stroke-miterlimit="10" points="897.128,1039.705 899.403,1028.146
    901.737,1039.623"/>
    <polygon id="svg_55" fill="#314FFF" stroke="#314FFF" stroke-miterlimit="10" points="901.737,1039.623 899.403,1028.146
    940.448,929.134"/>
    <polygon id="svg_56" fill="#314FFF" stroke="#314FFF" stroke-miterlimit="10" points="940.448,929.134 935.002,926.994
    899.403,1028.146"/>
    <polygon id="svg_57" fill="#314FFF" stroke="#314FFF" stroke-miterlimit="10" points="982.077,1038.456 987.718,1040.401
    1020.397,928.161"/>
    <polygon id="svg_58" fill="#314FFF" stroke="#314FFF" stroke-miterlimit="10" points="1020.397,928.161 1026.428,928.161
    987.718,1040.401"/>
    <polygon id="svg_59" fill="#314FFF" stroke="#314FFF" stroke-miterlimit="10" points="1026.428,928.161 1022.927,939.638
    1058.329,1040.013"/>
    <polygon id="svg_60" fill="#314FFF" stroke="#314FFF" stroke-miterlimit="10" points="1058.329,1040.013 1063.971,1038.845
    1026.428,928.161"/>
    <polygon id="svg_61" fill="#314FFF" stroke="#314FFF" stroke-miterlimit="10" points="1000.167,1005.192 997.833,1010.834
    1048.214,1010.834"/>
    <polygon id="svg_62" fill="#314FFF" stroke="#314FFF" stroke-miterlimit="10" points="1048.214,1010.834 1046.074,1005.192
    1000.167,1005.192"/>
    <polygon id="svg_63" fill="#314FFF" stroke="#314FFF" stroke-miterlimit="10" points="1144.232,1089.961 1150.184,1090.588
    1144.232,865.024"/>
    <polygon id="svg_64" fill="#314FFF" stroke="#314FFF" stroke-miterlimit="10" points="1150.184,865.024 1144.232,865.024
    1150.184,1090.588"/>
    <polygon id="svg_65" fill="#314FFF" stroke="#314FFF" stroke-miterlimit="10" points="1242.499,928.092 1248.53,928.092
    1242.694,1040.916"/>
    <polygon id="svg_66" fill="#314FFF" stroke="#314FFF" stroke-miterlimit="10" points="1242.694,1040.916 1248.53,1034.886
    1248.53,928.092"/>
    <polygon id="svg_67" fill="#314FFF" stroke="#314FFF" stroke-miterlimit="10" points="1242.694,1040.916 1297.355,1040.722
    1248.53,1034.886"/>
    <polygon id="svg_68" fill="#314FFF" stroke="#314FFF" stroke-miterlimit="10" points="1248.53,1034.886 1297.355,1035.274
    1297.355,1040.722"/>
    <polygon id="svg_69" fill="#314FFF" stroke="#314FFF" stroke-miterlimit="10" points="1366.554,926.766 1421.196,926.766
    1421.373,932.602"/>
    <polygon id="svg_70" fill="#314FFF" stroke="#314FFF" stroke-miterlimit="10" points="1366.554,926.766 1372.566,932.778
    1421.373,932.602"/>
    <polygon id="svg_71" fill="#314FFF" stroke="#314FFF" stroke-miterlimit="10" points="1366.554,926.766 1366.554,1040.827
    1372.566,1034.991"/>
    <polygon id="svg_72" fill="#314FFF" stroke="#314FFF" stroke-miterlimit="10" points="1372.566,1034.991 1372.566,932.778
    1366.554,926.766"/>
    <polygon id="svg_73" fill="#314FFF" stroke="#314FFF" stroke-miterlimit="10" points="1372.566,975.043 1408.994,980.702
    1372.566,980.702"/>
    <polygon id="svg_74" fill="#314FFF" stroke="#314FFF" stroke-miterlimit="10" points="1372.566,975.043 1408.817,975.043
    1408.994,980.702"/>
    <polygon id="svg_75" fill="#314FFF" stroke="#314FFF" stroke-miterlimit="10" points="1372.566,1034.991 1366.554,1040.827
    1421.373,1040.827"/>
    <polygon id="svg_76" fill="#314FFF" stroke="#314FFF" stroke-miterlimit="10" points="1421.373,1040.827 1421.373,1035.169
    1372.566,1034.991"/>
    <polygon id="svg_77" fill="#314FFF" stroke="#314FFF" stroke-miterlimit="10" points="1484.151,927.649 1489.987,927.827
    1484.505,1039.59"/>
    <polygon id="svg_78" fill="#314FFF" stroke="#314FFF" stroke-miterlimit="10" points="1484.505,1039.59 1489.81,1039.767
    1489.987,927.827"/>
    <polygon id="svg_79" fill="#314FFF" stroke="#314FFF" stroke-miterlimit="10" points="1489.987,927.827 1490.341,941.62
    1547.282,1039.767"/>
    <polygon id="svg_80" fill="#314FFF" stroke="#314FFF" stroke-miterlimit="10" points="1547.282,1039.767 1547.282,1026.149
    1489.987,927.827"/>
    <polygon id="svg_81" fill="#314FFF" stroke="#314FFF" stroke-miterlimit="10" points="1547.282,1039.767 1552.765,1039.767
    1546.929,928.181"/>
    <polygon id="svg_82" fill="#314FFF" stroke="#314FFF" stroke-miterlimit="10" points="1546.929,928.181 1553.118,927.827
    1552.765,1039.767"/>
    <polygon id="svg_83" fill="#314FFF" stroke="#314FFF" stroke-miterlimit="10" points="1609.177,926.766 1675.138,932.425
    1675.314,926.943"/>
    <polygon id="svg_84" fill="#314FFF" stroke="#314FFF" stroke-miterlimit="10" points="1675.138,932.425 1608.999,932.425
    1609.177,926.766"/>
    <polygon id="svg_85" fill="#314FFF" stroke="#314FFF" stroke-miterlimit="10" points="1639.063,932.425 1639.239,1039.59
    1645.252,1039.59"/>
    <polygon id="svg_86" fill="#314FFF" stroke="#314FFF" stroke-miterlimit="10" points="1645.252,1039.59 1645.252,932.425
    1639.063,932.425"/>
  </g>
</svg>
