<?xml version="1.0" standalone="no"?>
<!DOCTYPE svg PUBLIC "-//W3C//DTD SVG 1.1//EN" "http://www.w3.org/Graphics/SVG/1.1/DTD/svg11.dtd">
<svg width="4800" height="1200" viewBox="0 0 4800 1200" xmlns="http://www.w3.org/2000/svg" version="1.1">
<style>polygon { stroke-width: 0; }</style>

<polygon style="fill:rgb(99,63,236);" points="-5.871,326.719 -2.812,-2.499 347.812,213.281" />
<polygon style="fill:rgb(99,63,236);" points="538.594,-2.499 -2.812,-2.499 347.812,213.281" />
<polygon style="fill:rgb(99,63,236);" points="347.812,213.281 322.031,538.125 -5.871,326.719" />
<polygon style="fill:rgb(99,63,236);" points="1018.125,367.969 347.812,213.281 322.031,538.125" />
<polygon style="fill:rgb(99,63,236);" points="847.969,795.938 322.031,538.125 1018.125,367.969" />
<polygon style="fill:rgb(99,63,236);" points="1018.125,367.969 847.969,141.094 347.812,213.281" />
<polygon style="fill:rgb(99,63,236);" points="538.594,-2.499 847.969,141.094 1126.406,-2.499" />
<polygon style="fill:rgb(99,63,236);" points="1018.125,367.969 1126.406,-2.499 847.969,141.094" />
<polygon style="fill:rgb(99,63,236);" points="1018.125,367.969 1379.062,270.000 1126.406,-2.499" />
<polygon style="fill:rgb(99,63,236);" points="322.031,538.125 270.469,899.062 847.969,795.938" />
<polygon style="fill:rgb(99,63,236);" points="270.469,899.062 -2.585,847.500 -5.871,326.719" />
<polygon style="fill:rgb(99,63,236);" points="265.148,1202.207 -2.585,847.500 -0.942,1199.970" />
<polygon style="fill:rgb(99,63,236);" points="270.469,899.062 265.148,1202.207 -2.585,847.500" />
<polygon style="fill:rgb(99,63,236);" points="557.901,988.036 265.148,1202.207 270.469,899.062" />
<polygon style="fill:rgb(99,63,236);" points="557.901,988.036 1204.368,1202.843 265.148,1202.207" />
<polygon style="fill:rgb(97,65,236);" points="847.969,795.938 2040.252,833.814 1204.368,1202.843" />
<polygon style="fill:rgb(99,63,236);" points="322.031,538.125 -5.871,326.719 270.469,899.062" />
<polygon style="fill:rgb(99,63,236);" points="538.594,-2.499 347.812,213.281 847.969,141.094" />
<polygon style="fill:rgb(99,63,236);" points="847.969,795.938 1506.684,521.109 1018.125,367.969" />
<polygon style="fill:rgb(99,63,236);" points="1018.125,367.969 1379.062,270.000 1506.684,521.109" />
<polygon style="fill:rgb(97,65,236);" points="1506.684,521.109 2040.252,833.814 847.969,795.938" />
<polygon style="fill:rgb(97,65,236);" points="1506.684,521.109 1762.534,322.114 1379.062,270.000" />
<polygon style="fill:rgb(93,71,237);" points="1762.534,322.114 2040.252,833.814 1506.684,521.109" />
<polygon style="fill:rgb(88,78,237);" points="1762.534,322.114 2075.240,490.494 2040.252,833.814" />
<polygon style="fill:rgb(87,80,237);" points="2075.240,490.494 2103.668,313.367 1762.534,322.114" />
<polygon style="fill:rgb(97,65,236);" points="1762.534,322.114 1561.353,136.240 1379.062,270.000" />
<polygon style="fill:rgb(99,63,236);" points="1561.353,136.240 1126.406,-2.499 1379.062,270.000" />
<polygon style="fill:rgb(98,64,236);" points="1561.353,136.240 1677.251,-1.525 1126.406,-2.499" />
<polygon style="fill:rgb(95,69,237);" points="1561.353,136.240 1762.534,322.114 1677.251,-1.525" />
<polygon style="fill:rgb(92,73,237);" points="1762.534,322.114 1979.023,0.661 1677.251,-1.525" />
<polygon style="fill:rgb(88,79,237);" points="2103.668,313.367 1979.023,0.661 1762.534,322.114" />
<polygon style="fill:rgb(94,69,236);" points="2040.252,833.814 1828.137,1111.532 1204.368,1202.843" />
<polygon style="fill:rgb(95,69,236);" points="1828.137,1111.532 1204.368,1202.843 1834.153,1202.843" />
<polygon style="fill:rgb(88,80,237);" points="2040.252,833.814 2156.150,1087.478 1828.137,1111.532" />
<polygon style="fill:rgb(89,77,237);" points="1834.153,1202.843 2156.150,1087.478 1828.137,1111.532" />
<polygon style="fill:rgb(82,88,238);" points="1834.153,1202.843 2398.879,1204.486 2156.150,1087.478" />
<polygon style="fill:rgb(84,85,238);" points="2040.252,833.814 2309.223,766.025 2156.150,1087.478" />
<polygon style="fill:rgb(75,100,238);" points="2075.240,490.494 2932.447,376.783 2309.223,766.025" />
<polygon style="fill:rgb(78,94,238);" points="2103.668,313.367 2932.447,376.783 2075.240,490.494" />
<polygon style="fill:rgb(68,109,239);" points="2309.223,766.025 2993.676,606.392 2932.447,376.783" />
<polygon style="fill:rgb(81,89,238);" points="2309.223,766.025 2398.879,1204.486 2156.150,1087.478" />
<polygon style="fill:rgb(74,100,238);" points="2398.879,1204.486 2558.512,1039.369 2666.762,1204.486" />
<polygon style="fill:rgb(78,94,238);" points="2558.512,1039.369 2309.223,766.025 2398.879,1204.486" />
<polygon style="fill:rgb(85,84,238);" points="2103.668,313.367 2274.234,212.776 1979.023,0.661" />
<polygon style="fill:rgb(84,85,238);" points="2309.223,766.025 2040.252,833.814 2075.240,490.494" />
<polygon style="fill:rgb(64,116,239);" points="2993.676,606.392 3275.768,975.357 2558.512,1039.369" />
<polygon style="fill:rgb(68,110,239);" points="2666.762,1204.486 3275.768,975.357 2558.512,1039.369" />
<polygon style="fill:rgb(63,118,239);" points="3275.768,975.357 3491.712,1205.533 2666.762,1204.486" />
<polygon style="fill:rgb(73,102,238);" points="2932.447,376.783 2678.784,175.005 2103.668,313.367" />
<polygon style="fill:rgb(78,94,238);" points="2274.234,212.776 2678.784,175.005 2103.668,313.367" />
<polygon style="fill:rgb(77,96,238);" points="2678.784,175.005 2396.693,0.065 2274.234,212.776" />
<polygon style="fill:rgb(81,90,238);" points="2274.234,212.776 2396.693,0.065 1979.023,0.661" />
<polygon style="fill:rgb(55,129,240);" points="2932.447,376.783 3772.161,304.024 2993.676,606.392" />
<polygon style="fill:rgb(49,139,240);" points="3275.768,975.357 3930.162,1205.533 3491.712,1205.533" />
<polygon style="fill:rgb(54,131,240);" points="2993.676,606.392 3728.425,925.062 3275.768,975.357" />
<polygon style="fill:rgb(45,145,241);" points="3728.425,925.062 3930.162,1205.533 3275.768,975.357" />
<polygon style="fill:rgb(48,141,240);" points="3728.425,925.062 3772.161,304.024 2993.676,606.392" />
<polygon style="fill:rgb(70,106,239);" points="2678.784,175.005 3326.354,-1.702 2396.693,0.065" />
<polygon style="fill:rgb(64,116,239);" points="2932.447,376.783 3326.354,-1.702 2678.784,175.005" />
<polygon style="fill:rgb(53,132,240);" points="3772.161,304.024 3326.354,-1.702 2932.447,376.783" />
<polygon style="fill:rgb(39,153,242);" points="3930.162,1205.533 4076.411,575.601 3728.425,925.062" />
<polygon style="fill:rgb(40,153,241);" points="4076.411,575.601 3772.161,304.024 3728.425,925.062" />
<polygon style="fill:rgb(33,164,242);" points="4076.411,575.601 4640.593,949.535 3930.162,1205.533" />
<polygon style="fill:rgb(36,158,242);" points="4076.411,575.601 4170.441,160.117 3772.161,304.024" />
<polygon style="fill:rgb(41,151,241);" points="3326.354,-1.702 4170.441,160.117 3772.161,304.024" />
<polygon style="fill:rgb(38,155,242);" points="4170.441,160.117 4428.478,0.484 3326.354,-1.702" />
<polygon style="fill:rgb(27,172,243);" points="4428.478,0.484 4725.877,247.588 4170.441,160.117" />
<polygon style="fill:rgb(27,172,242);" points="4076.411,575.601 4386.930,682.752 4699.636,595.281" />
<polygon style="fill:rgb(28,170,242);" points="4699.636,595.281 4170.441,160.117 4076.411,575.601" />
<polygon style="fill:rgb(25,176,242);" points="4699.636,595.281 4725.877,247.588 4170.441,160.117" />
<polygon style="fill:rgb(29,170,242);" points="4386.930,682.752 4076.411,575.601 4640.593,949.535" />
<polygon style="fill:rgb(23,178,243);" points="4640.593,949.535 4386.930,682.752 4699.636,595.281" />
<polygon style="fill:rgb(21,182,243);" points="4699.636,595.281 4725.877,247.588 4802.015,418.154" />
<polygon style="fill:rgb(27,172,242);" points="4640.593,949.535 4798.928,1206.841 3930.162,1205.533" />
<polygon style="fill:rgb(21,181,243);" points="4699.636,595.281 4802.413,910.174 4640.593,949.535" />
<polygon style="fill:rgb(21,182,243);" points="4802.413,910.174 4640.593,949.535 4798.928,1206.841" />
<polygon style="fill:rgb(23,179,243);" points="4725.877,247.588 4802.015,-1.702 4428.478,0.484" />
<polygon style="fill:rgb(21,183,243);" points="4725.877,247.588 4802.015,-1.702 4802.015,418.154" />
<polygon style="fill:rgb(21,183,243);" points="4699.636,595.281 4802.015,418.154 4802.413,910.174" />
<polygon style="fill:rgb(99,63,236);" points="270.469,899.062 847.969,795.938 1204.368,1202.843" />
<polygon style="fill:rgb(75,100,238);" points="2309.223,766.025 2993.676,606.392 2558.512,1039.369" />
</svg>
