<?xml version="1.0" standalone="no"?>
<!DOCTYPE svg PUBLIC "-//W3C//DTD SVG 1.1//EN" "http://www.w3.org/Graphics/SVG/1.1/DTD/svg11.dtd">
<svg width="3600" height="800" viewBox="0 0 3600 800" xmlns="http://www.w3.org/2000/svg" version="1.1">
<style> polygon { stroke-width: .5; stroke-linejoin: round; } </style>

<polygon style="fill:rgb(174,174,174);stroke:rgb(174,174,174)" points="50.235,261.470 228.341,261.470 227.984,277.175" />
<polygon style="fill:rgb(174,174,174);stroke:rgb(174,174,174)" points="50.235,261.470 50.235,276.818 227.984,277.175" />
<polygon style="fill:rgb(174,174,174);stroke:rgb(174,174,174)" points="131.293,276.747 147.069,564.144 147.461,277.139" />
<polygon style="fill:rgb(174,174,174);stroke:rgb(174,174,174)" points="131.293,276.747 130.579,564.536 147.069,564.144" />
<polygon style="fill:rgb(182,182,182);stroke:rgb(182,182,182)" points="380.284,261.435 396.774,564.536 379.892,564.536" />
<polygon style="fill:rgb(174,174,174);stroke:rgb(174,174,174)" points="380.284,261.435 397.167,261.435 396.774,564.536" />
<polygon style="fill:rgb(174,174,174);stroke:rgb(174,174,174)" points="397.167,261.435 474.441,276.854 397.345,277.211" />
<polygon style="fill:rgb(174,174,174);stroke:rgb(174,174,174)" points="397.167,261.435 474.441,261.149 474.441,276.854" />
<polygon style="fill:rgb(174,174,174);stroke:rgb(174,174,174)" points="474.441,261.149 496.214,264.005 490.146,272.571" />
<polygon style="fill:rgb(174,174,174);stroke:rgb(174,174,174)" points="474.441,261.149 474.441,276.854 491.217,279.352" />
<polygon style="fill:rgb(174,174,174);stroke:rgb(174,174,174)" points="490.146,272.571 491.217,279.352 474.441,261.149" />
<polygon style="fill:rgb(174,174,174);stroke:rgb(174,174,174)" points="490.146,272.571 513.703,275.783 514.417,269.002" />
<polygon style="fill:rgb(174,174,174);stroke:rgb(174,174,174)" points="514.417,269.002 496.214,264.005 490.146,272.571" />
<polygon style="fill:rgb(174,174,174);stroke:rgb(174,174,174)" points="513.703,275.783 511.562,285.420 491.217,279.352" />
<polygon style="fill:rgb(174,174,174);stroke:rgb(174,174,174)" points="513.703,275.783 529.051,282.565 528.694,276.854" />
<polygon style="fill:rgb(174,174,174);stroke:rgb(174,174,174)" points="513.703,275.783 490.146,272.571 491.217,279.352" />
<polygon style="fill:rgb(174,174,174);stroke:rgb(174,174,174)" points="511.562,285.420 534.048,302.196 529.051,282.565" />
<polygon style="fill:rgb(174,174,174);stroke:rgb(174,174,174)" points="528.694,276.854 550.467,297.199 529.051,282.565" />
<polygon style="fill:rgb(174,174,174);stroke:rgb(174,174,174)" points="550.467,297.199 546.183,325.753 534.048,302.196" />
<polygon style="fill:rgb(174,174,174);stroke:rgb(174,174,174)" points="546.183,325.753 564.030,333.962 550.467,297.199" />
<polygon style="fill:rgb(174,174,174);stroke:rgb(174,174,174)" points="546.183,325.753 548.325,355.378 564.030,333.962" />
<polygon style="fill:rgb(174,174,174);stroke:rgb(174,174,174)" points="564.030,333.962 565.101,350.024 548.325,355.378" />
<polygon style="fill:rgb(174,174,174);stroke:rgb(174,174,174)" points="548.325,355.378 555.820,380.719 565.101,350.024" />
<polygon style="fill:rgb(174,174,174);stroke:rgb(174,174,174)" points="565.101,350.024 560.817,383.932 555.820,380.719" />
<polygon style="fill:rgb(174,174,174);stroke:rgb(174,174,174)" points="555.820,380.719 544.042,379.649 548.325,355.378" />
<polygon style="fill:rgb(182,182,182);stroke:rgb(182,182,182)" points="544.042,379.649 532.977,398.209 547.968,392.855" />
<polygon style="fill:rgb(174,174,174);stroke:rgb(174,174,174)" points="547.968,392.855 555.820,380.719 544.042,379.649" />
<polygon style="fill:rgb(174,174,174);stroke:rgb(174,174,174)" points="547.968,392.855 548.682,407.489 560.817,383.932" />
<polygon style="fill:rgb(174,174,174);stroke:rgb(174,174,174)" points="528.694,276.854 514.417,269.002 513.703,275.783" />
<polygon style="fill:rgb(174,174,174);stroke:rgb(174,174,174)" points="513.703,275.783 511.562,285.420 529.051,282.565" />
<polygon style="fill:rgb(174,174,174);stroke:rgb(174,174,174)" points="529.051,282.565 550.467,297.199 534.048,302.196" />
<polygon style="fill:rgb(174,174,174);stroke:rgb(174,174,174)" points="560.817,383.932 555.820,380.719 547.968,392.855" />
<polygon style="fill:rgb(174,174,174);stroke:rgb(174,174,174)" points="532.977,398.209 548.682,407.489 547.968,392.855" />
<polygon style="fill:rgb(174,174,174);stroke:rgb(174,174,174)" points="532.977,398.209 520.485,409.630 548.682,407.489" />
<polygon style="fill:rgb(174,174,174);stroke:rgb(174,174,174)" points="548.682,407.489 529.765,424.978 520.485,409.630" />
<polygon style="fill:rgb(174,174,174);stroke:rgb(174,174,174)" points="520.485,409.630 504.066,426.763 529.765,424.978" />
<polygon style="fill:rgb(174,174,174);stroke:rgb(174,174,174)" points="529.765,424.978 502.282,434.615 504.066,426.763" />
<polygon style="fill:rgb(182,182,182);stroke:rgb(182,182,182)" points="504.066,426.763 495.500,420.338 520.485,409.630" />
<polygon style="fill:rgb(174,174,174);stroke:rgb(174,174,174)" points="502.282,434.615 484.435,438.184 495.500,420.338" />
<polygon style="fill:rgb(174,174,174);stroke:rgb(174,174,174)" points="504.066,426.763 495.500,420.338 502.282,434.615" />
<polygon style="fill:rgb(174,174,174);stroke:rgb(174,174,174)" points="484.435,438.184 480.152,423.551 495.500,420.338" />
<polygon style="fill:rgb(174,174,174);stroke:rgb(174,174,174)" points="480.152,423.551 396.988,422.837 484.435,438.184" />
<polygon style="fill:rgb(174,174,174);stroke:rgb(174,174,174)" points="484.435,438.184 397.702,438.898 396.988,422.837" />
<polygon style="fill:rgb(174,174,174);stroke:rgb(174,174,174)" points="484.435,438.184 505.494,477.446 502.282,434.615" />
<polygon style="fill:rgb(174,174,174);stroke:rgb(174,174,174)" points="502.282,434.615 547.254,523.490 505.494,477.446" />
<polygon style="fill:rgb(174,174,174);stroke:rgb(174,174,174)" points="547.254,523.490 551.537,567.035 505.494,477.446" />
<polygon style="fill:rgb(174,174,174);stroke:rgb(174,174,174)" points="547.254,523.490 566.528,560.610 551.537,567.035" />
<polygon style="fill:rgb(174,174,174);stroke:rgb(174,174,174)" points="796.928,264.789 812.230,265.554 796.928,564.709" />
<polygon style="fill:rgb(174,174,174);stroke:rgb(174,174,174)" points="812.995,564.709 796.928,564.709 812.230,265.554" />
<polygon style="fill:rgb(182,182,182);stroke:rgb(182,182,182)" points="1130.587,94.553 1146.578,95.395 1147.419,701.356" />
<polygon style="fill:rgb(174,174,174);stroke:rgb(174,174,174)" points="1129.746,701.356 1147.419,701.356 1130.587,94.553" />
<polygon style="fill:rgb(174,174,174);stroke:rgb(174,174,174)" points="1362.350,268.767 1376.630,262.730 1464.492,564.834" />
<polygon style="fill:rgb(174,174,174);stroke:rgb(174,174,174)" points="1464.492,564.834 1470.604,533.783 1376.630,262.730" />
<polygon style="fill:rgb(174,174,174);stroke:rgb(174,174,174)" points="1464.492,564.834 1470.604,533.783 1476.875,564.615" />
<polygon style="fill:rgb(174,174,174);stroke:rgb(174,174,174)" points="1476.875,564.615 1470.604,533.783 1580.868,267.792" />
<polygon style="fill:rgb(174,174,174);stroke:rgb(174,174,174)" points="1580.868,267.792 1566.236,262.044 1470.604,533.783" />
<polygon style="fill:rgb(174,174,174);stroke:rgb(174,174,174)" points="1692.699,561.479 1707.854,566.705 1795.646,265.179" />
<polygon style="fill:rgb(174,174,174);stroke:rgb(174,174,174)" points="1795.646,265.179 1811.846,265.179 1707.854,566.705" />
<polygon style="fill:rgb(174,174,174);stroke:rgb(174,174,174)" points="1811.846,265.179 1802.440,296.011 1897.548,565.660" />
<polygon style="fill:rgb(174,174,174);stroke:rgb(174,174,174)" points="1897.548,565.660 1912.703,562.525 1811.846,265.179" />
<polygon style="fill:rgb(174,174,174);stroke:rgb(174,174,174)" points="1741.298,472.119 1735.027,487.274 1870.374,487.274" />
<polygon style="fill:rgb(174,174,174);stroke:rgb(174,174,174)" points="1870.374,487.274 1864.626,472.119 1741.298,472.119" />
<polygon style="fill:rgb(174,174,174);stroke:rgb(174,174,174)" points="2128.320,699.845 2144.311,701.528 2128.320,95.567" />
<polygon style="fill:rgb(174,174,174);stroke:rgb(174,174,174)" points="2144.311,95.567 2128.320,95.567 2144.311,701.528" />
<polygon style="fill:rgb(174,174,174);stroke:rgb(174,174,174)" points="2392.311,264.994 2408.511,264.994 2392.834,568.088" />
<polygon style="fill:rgb(174,174,174);stroke:rgb(174,174,174)" points="2392.834,568.088 2408.511,551.888 2408.511,264.994" />
<polygon style="fill:rgb(174,174,174);stroke:rgb(174,174,174)" points="2392.834,568.088 2539.677,567.565 2408.511,551.888" />
<polygon style="fill:rgb(174,174,174);stroke:rgb(174,174,174)" points="2408.511,551.888 2539.677,552.933 2539.677,567.565" />
<polygon style="fill:rgb(174,174,174);stroke:rgb(174,174,174)" points="2725.572,261.431 2872.368,261.431 2872.843,277.108" />
<polygon style="fill:rgb(174,174,174);stroke:rgb(174,174,174)" points="2725.572,261.431 2741.724,277.583 2872.843,277.108" />
<polygon style="fill:rgb(174,174,174);stroke:rgb(174,174,174)" points="2725.572,261.431 2725.572,567.850 2741.724,552.173" />
<polygon style="fill:rgb(174,174,174);stroke:rgb(174,174,174)" points="2741.724,552.173 2741.724,277.583 2725.572,261.431" />
<polygon style="fill:rgb(174,174,174);stroke:rgb(174,174,174)" points="2741.724,391.125 2839.588,406.327 2741.724,406.327" />
<polygon style="fill:rgb(174,174,174);stroke:rgb(174,174,174)" points="2741.724,391.125 2839.113,391.125 2839.588,406.327" />
<polygon style="fill:rgb(174,174,174);stroke:rgb(174,174,174)" points="2741.724,552.173 2725.572,567.850 2872.843,567.850" />
<polygon style="fill:rgb(174,174,174);stroke:rgb(174,174,174)" points="2872.843,567.850 2872.843,552.648 2741.724,552.173" />
<polygon style="fill:rgb(174,174,174);stroke:rgb(174,174,174)" points="3041.492,263.806 3057.169,264.281 3042.442,564.525" />
<polygon style="fill:rgb(174,174,174);stroke:rgb(174,174,174)" points="3042.442,564.525 3056.694,565.000 3057.169,264.281" />
<polygon style="fill:rgb(174,174,174);stroke:rgb(174,174,174)" points="3057.169,264.281 3058.119,301.337 3211.091,565.000" />
<polygon style="fill:rgb(174,174,174);stroke:rgb(174,174,174)" points="3211.091,565.000 3211.091,528.419 3057.169,264.281" />
<polygon style="fill:rgb(174,174,174);stroke:rgb(174,174,174)" points="3211.091,565.000 3225.819,565.000 3210.141,265.232" />
<polygon style="fill:rgb(174,174,174);stroke:rgb(174,174,174)" points="3210.141,265.232 3226.769,264.281 3225.819,565.000" />
<polygon style="fill:rgb(174,174,174);stroke:rgb(174,174,174)" points="3377.365,261.431 3554.566,276.633 3555.041,261.906" />
<polygon style="fill:rgb(174,174,174);stroke:rgb(174,174,174)" points="3554.566,276.633 3376.890,276.633 3377.365,261.431" />
<polygon style="fill:rgb(174,174,174);stroke:rgb(174,174,174)" points="3457.652,276.633 3458.127,564.525 3474.279,564.525" />
<polygon style="fill:rgb(174,174,174);stroke:rgb(174,174,174)" points="3474.279,564.525 3474.279,276.633 3457.652,276.633" />
</svg>
